<?xml version="1.0" encoding="UTF-8"?>
<svg id="Layer_1" data-name="Layer 1" xmlns="http://www.w3.org/2000/svg" xmlns:xlink="http://www.w3.org/1999/xlink" viewBox="0 0 247.19 59.93">
  <defs>
    <style>
      .cls-1 {
        fill: #000;
      }

      .cls-1, .cls-2 {
        stroke-width: 0px;
      }

      .cls-2 {
        fill: none;
      }

      .cls-3 {
        clip-path: url(#clippath);
      }
    </style>
    <clipPath id="clippath">
      <rect class="cls-2" x="-174.04" y="-409.74" width="595.28" height="841.89"/>
    </clipPath>
  </defs>
  <g class="cls-3">
    <path class="cls-1" d="M59.73,59.73h-.2V.4H.4v59.13h59.33s0,.2,0,.2h-.2.2v.2H0V0h59.93v59.93h-.2v-.2ZM59.52,59.73V.2h.4v59.53h-.4ZM39.69,59.73V.2h.4v59.53h-.4ZM19.84,59.73V.2h.4v59.53h-.4ZM0,59.73V.2h.4v59.53h-.4ZM.2,0h59.53v.4H.2V0ZM.2,19.84h59.53v.4H.2v-.4ZM.2,39.69h59.53v.4H.2v-.4ZM.2,59.53h59.53v.4H.2v-.4Z"/>
    <path class="cls-1" d="M10.63,6.31c0-.27,0-.29-.24-.29-.29.32-.88.76-2.11.76v.35c.27,0,.87,0,1.53-.31v6.22c0,.43-.04.57-1.09.57h-.37v.35c.32-.02,1.48-.02,1.88-.02s1.54,0,1.86.02v-.35h-.37c-1.05,0-1.09-.14-1.09-.57v-6.74Z"/>
    <path class="cls-1" d="M32.29,11.97h-.26c-.04.2-.13.86-.25,1.05-.08.11-.76.11-1.12.11h-2.21c.32-.27,1.05-1.04,1.36-1.33,1.82-1.67,2.49-2.29,2.49-3.48,0-1.37-1.09-2.29-2.47-2.29s-2.2,1.18-2.2,2.21c0,.61.53.61.56.61.25,0,.56-.18.56-.56,0-.33-.23-.56-.56-.56-.11,0-.13,0-.17.01.23-.81.87-1.36,1.65-1.36,1.02,0,1.64.85,1.64,1.95,0,1.02-.59,1.9-1.27,2.66l-2.41,2.7v.29h4.36l.31-2.01Z"/>
    <path class="cls-1" d="M49.08,9.68c-.2.01-.25.02-.25.13,0,.12.06.12.27.12h.55c1.02,0,1.47.84,1.47,1.98,0,1.57-.81,1.98-1.4,1.98s-1.55-.27-1.9-1.06c.38.06.73-.16.73-.59,0-.35-.25-.59-.59-.59-.29,0-.6.17-.6.62,0,1.06,1.06,1.94,2.39,1.94,1.42,0,2.47-1.09,2.47-2.29,0-1.1-.88-1.96-2.03-2.16,1.04-.3,1.71-1.17,1.71-2.1s-.98-1.64-2.14-1.64-2.08.73-2.08,1.6c0,.48.37.57.55.57.25,0,.54-.18.54-.54,0-.38-.29-.55-.55-.55h-.13c.45-.8,1.58-.8,1.64-.8.39,0,1.17.18,1.17,1.35,0,.23-.04.9-.38,1.41-.36.53-.76.56-1.09.57l-.36.04Z"/>
    <path class="cls-1" d="M10.72,26.97v4.5h-2.9l2.9-4.5ZM11.51,26.04c0-.23,0-.29-.17-.29-.1,0-.13,0-.23.14l-3.6,5.58v.35h3.14v1.09c0,.44-.02.56-.9.56h-.24v.35c.27-.02,1.22-.02,1.55-.02s1.29,0,1.57.02v-.35h-.24c-.86,0-.9-.12-.9-.56v-1.09h1.21v-.35h-1.21v-5.44Z"/>
    <path class="cls-1" d="M28.57,26.97c.51.17.93.18,1.06.18,1.35,0,2.21-.99,2.21-1.16l-.1-.11s-.05,0-.16.05c-.67.29-1.24.32-1.55.32-.79,0-1.35-.24-1.58-.33l-.12-.04c-.1,0-.1.07-.1.26v3.55c0,.22,0,.29.14.29.06,0,.07-.01.19-.16.33-.49.9-.78,1.49-.78.63,0,.94.59,1.04.79.2.47.22,1.05.22,1.51s0,1.14-.33,1.67c-.26.43-.73.73-1.25.73-.79,0-1.57-.54-1.78-1.41l.19.04c.2,0,.53-.12.53-.53,0-.33-.23-.53-.53-.53-.22,0-.53.11-.53.57,0,1.02.81,2.17,2.14,2.17s2.53-1.14,2.53-2.65c0-1.42-.96-2.6-2.21-2.6-.68,0-1.21.3-1.52.63v-2.47Z"/>
    <path class="cls-1" d="M49.82,33.74c-.75,0-1.11-.67-1.22-.92-.11-.31-.23-.9-.23-1.73,0-.94.43-2.13,1.51-2.13.66,0,1,.44,1.18.85.19.44.19,1.04.19,1.55,0,.61,0,1.15-.23,1.6-.3.57-.73.78-1.21.78ZM48.35,29.66c0-3.02,1.47-3.5,2.11-3.5.43,0,.86.13,1.09.49-.14,0-.6,0-.6.49,0,.26.18.49.49.49s.5-.18.5-.53c0-.62-.45-1.23-1.49-1.23-1.51,0-3.08,1.54-3.08,4.17,0,3.29,1.43,4.03,2.45,4.03,1.3,0,2.41-1.14,2.41-2.69s-1.11-2.65-2.31-2.65c-1.06,0-1.46.92-1.58,1.25v-.32Z"/>
    <path class="cls-1" d="M12.87,46.24v-.27h-2.88c-1.45,0-1.47-.16-1.52-.38h-.26l-.37,2.39h.26c.04-.22.14-.96.3-1.09.1-.07.99-.07,1.16-.07h2.53l-1.27,1.82c-.32.47-1.53,2.43-1.53,4.67,0,.13,0,.61.49.61s.5-.47.5-.62v-.6c0-1.78.29-3.17.85-3.97l1.73-2.49Z"/>
    <path class="cls-1" d="M29.53,49.81l1.45.94c.31.2.86.57.86,1.3,0,.91-.92,1.53-1.88,1.53-1.02,0-1.89-.74-1.89-1.73,0-.93.68-1.68,1.46-2.04ZM28.97,48.27c-.16-.11-.63-.42-.63-1,0-.78.81-1.27,1.61-1.27.86,0,1.62.62,1.62,1.48,0,.73-.53,1.31-1.22,1.7l-1.39-.91ZM30.6,49.34c.6-.32,1.47-.87,1.47-1.88s-1-1.76-2.1-1.76c-1.18,0-2.11.87-2.11,1.96,0,.41.12.81.45,1.22.13.16.14.17.98.75-1.16.54-1.76,1.34-1.76,2.21,0,1.27,1.21,2.05,2.43,2.05,1.33,0,2.44-.98,2.44-2.23s-.86-1.76-1.79-2.33Z"/>
    <path class="cls-1" d="M49.72,50.8c-.75,0-1.08-.61-1.18-.84-.19-.45-.19-1.03-.19-1.57,0-.67,0-1.24.31-1.73.22-.32.54-.67,1.18-.67.68,0,1.03.6,1.15.87.24.59.24,1.6.24,1.78,0,1-.45,2.15-1.51,2.15ZM51.25,50.18c0,2.82-1.25,3.41-1.97,3.41-.29,0-.92-.04-1.22-.45h.07c.08.02.51-.05.51-.49,0-.26-.18-.49-.49-.49s-.5.2-.5.51c0,.74.6,1.24,1.64,1.24,1.49,0,2.94-1.59,2.94-4.18,0-3.21-1.34-4.01-2.39-4.01-1.31,0-2.47,1.1-2.47,2.68s1.11,2.65,2.31,2.65c.88,0,1.34-.65,1.58-1.25v.39Z"/>
    <path class="cls-1" d="M78.21,25.93h.17c.12,0,.35,0,.35-.26s-.23-.26-.35-.26h-.94c-.12,0-.35,0-.35.26s.23.26.35.26h.17v1.55h-1.66v-1.55h.17c.12,0,.35,0,.35-.26s-.23-.26-.35-.26h-.94c-.12,0-.35,0-.35.26s.23.26.35.26h.17v3.82h-.17c-.12,0-.35,0-.35.26s.23.26.35.26h.94c.12,0,.35,0,.35-.26s-.23-.26-.35-.26h-.17v-1.74h1.66v1.74h-.17c-.12,0-.35,0-.35.26s.23.26.35.26h.94c.12,0,.35,0,.35-.26s-.23-.26-.35-.26h-.17v-3.82Z"/>
    <path class="cls-1" d="M84.41,34.3c-.66.5-.98.99-1.08,1.15-.54.82-.63,1.58-.63,1.59,0,.14.14.14.24.14.2,0,.22-.02.26-.24.27-1.17.98-2.17,2.33-2.72.14-.05.18-.07.18-.16l-.1-.13c-.53-.2-1.97-.8-2.43-2.81-.04-.14-.05-.18-.25-.18-.1,0-.24,0-.24.14,0,.02.11.78.61,1.58.24.36.59.78,1.1,1.16h-8.88c-.22,0-.43,0-.43.24s.22.24.43.24h8.88ZM75.02,34.3c.2,0,.42,0,.42-.24s-.22-.24-.42-.24h-6.46c-.2,0-.42,0-.42.24s.22.24.42.24h6.46Z"/>
    <path class="cls-1" d="M153.36,59.73h-.2V.4h-59.13v59.13h59.33s0,.2,0,.2h-.2.2v.2h-59.73V0h59.93v59.93h-.2v-.2ZM153.15,59.73V.2h.4v59.53h-.4ZM133.32,59.73V.2h.4v59.53h-.4ZM113.47,59.73V.2h.4v59.53h-.4ZM93.63,59.73V.2h.4v59.53h-.4ZM93.83,0h59.53v.4h-59.53V0ZM93.83,19.84h59.53v.4h-59.53v-.4ZM93.83,39.69h59.53v.4h-59.53v-.4ZM93.83,59.53h59.53v.4h-59.53v-.4Z"/>
    <path class="cls-1" d="M104.27,6.31c0-.27,0-.29-.24-.29-.29.32-.88.76-2.11.76v.35c.27,0,.87,0,1.53-.31v6.22c0,.43-.04.57-1.09.57h-.37v.35c.32-.02,1.48-.02,1.88-.02s1.54,0,1.86.02v-.35h-.37c-1.05,0-1.09-.14-1.09-.57v-6.74Z"/>
    <path class="cls-1" d="M125.93,11.97h-.26c-.04.2-.13.86-.25,1.05-.08.11-.76.11-1.12.11h-2.21c.32-.27,1.05-1.04,1.36-1.33,1.82-1.67,2.49-2.29,2.49-3.48,0-1.37-1.09-2.29-2.47-2.29s-2.2,1.18-2.2,2.21c0,.61.53.61.56.61.25,0,.56-.18.56-.56,0-.33-.23-.56-.56-.56-.11,0-.13,0-.17.01.23-.81.87-1.36,1.65-1.36,1.02,0,1.64.85,1.64,1.95,0,1.02-.59,1.9-1.27,2.66l-2.41,2.7v.29h4.36l.31-2.01Z"/>
    <path class="cls-1" d="M142.71,9.68c-.2.01-.25.02-.25.13,0,.12.06.12.27.12h.55c1.02,0,1.47.84,1.47,1.98,0,1.57-.81,1.98-1.4,1.98s-1.55-.27-1.9-1.06c.38.06.73-.16.73-.59,0-.35-.25-.59-.59-.59-.29,0-.6.17-.6.62,0,1.06,1.06,1.94,2.39,1.94,1.42,0,2.47-1.09,2.47-2.29,0-1.1-.88-1.96-2.03-2.16,1.04-.3,1.71-1.17,1.71-2.1s-.98-1.64-2.14-1.64-2.08.73-2.08,1.6c0,.48.37.57.55.57.25,0,.54-.18.54-.54,0-.38-.29-.55-.55-.55h-.13c.45-.8,1.58-.8,1.64-.8.39,0,1.17.18,1.17,1.35,0,.23-.04.9-.38,1.41-.36.53-.76.56-1.09.57l-.36.04Z"/>
    <path class="cls-1" d="M103.77,33.74c-.75,0-1.11-.67-1.22-.92-.11-.31-.23-.9-.23-1.73,0-.94.43-2.13,1.51-2.13.66,0,1,.44,1.18.85.19.44.19,1.04.19,1.55,0,.61,0,1.15-.23,1.6-.3.57-.73.78-1.21.78ZM102.3,29.66c0-3.02,1.47-3.5,2.11-3.5.43,0,.86.13,1.09.49-.14,0-.6,0-.6.49,0,.26.18.49.49.49s.5-.18.5-.53c0-.62-.45-1.23-1.49-1.23-1.51,0-3.08,1.54-3.08,4.17,0,3.29,1.43,4.03,2.45,4.03,1.3,0,2.41-1.14,2.41-2.69s-1.11-2.65-2.31-2.65c-1.06,0-1.46.92-1.58,1.25v-.32Z"/>
    <path class="cls-1" d="M124.19,26.97v4.5h-2.9l2.9-4.5ZM124.98,26.04c0-.23,0-.29-.17-.29-.1,0-.13,0-.23.14l-3.6,5.58v.35h3.14v1.09c0,.44-.02.56-.9.56h-.24v.35c.27-.02,1.22-.02,1.55-.02s1.29,0,1.57.02v-.35h-.24c-.86,0-.9-.12-.9-.56v-1.09h1.21v-.35h-1.21v-5.44Z"/>
    <path class="cls-1" d="M142.04,26.97c.51.17.93.18,1.06.18,1.35,0,2.21-.99,2.21-1.16l-.1-.11s-.05,0-.16.05c-.67.29-1.24.32-1.55.32-.79,0-1.35-.24-1.58-.33l-.12-.04c-.1,0-.1.07-.1.26v3.55c0,.22,0,.29.14.29.06,0,.07-.01.19-.16.33-.49.9-.78,1.49-.78.63,0,.94.59,1.04.79.2.47.22,1.05.22,1.51s0,1.14-.33,1.67c-.26.43-.73.73-1.25.73-.79,0-1.57-.54-1.78-1.41l.19.04c.2,0,.53-.12.53-.53,0-.33-.23-.53-.53-.53-.22,0-.53.11-.53.57,0,1.02.81,2.17,2.14,2.17s2.53-1.14,2.53-2.65c0-1.42-.96-2.6-2.21-2.6-.68,0-1.21.3-1.52.63v-2.47Z"/>
    <path class="cls-1" d="M103.32,49.81l1.45.94c.31.2.86.57.86,1.3,0,.91-.92,1.53-1.88,1.53-1.02,0-1.89-.74-1.89-1.73,0-.93.68-1.68,1.46-2.04ZM102.76,48.27c-.16-.11-.63-.42-.63-1,0-.78.81-1.27,1.61-1.27.86,0,1.62.62,1.62,1.48,0,.73-.53,1.31-1.22,1.7l-1.39-.91ZM104.39,49.34c.6-.32,1.47-.87,1.47-1.88s-1-1.76-2.1-1.76c-1.18,0-2.11.87-2.11,1.96,0,.41.12.81.45,1.22.13.16.14.17.98.75-1.16.54-1.76,1.34-1.76,2.21,0,1.27,1.21,2.05,2.43,2.05,1.33,0,2.44-.98,2.44-2.23s-.86-1.76-1.79-2.33Z"/>
    <path class="cls-1" d="M123.51,50.8c-.75,0-1.08-.61-1.18-.84-.19-.45-.19-1.03-.19-1.57,0-.67,0-1.24.31-1.73.22-.32.54-.67,1.18-.67.68,0,1.03.6,1.15.87.24.59.24,1.6.24,1.78,0,1-.45,2.15-1.51,2.15ZM125.04,50.18c0,2.82-1.25,3.41-1.97,3.41-.29,0-.92-.04-1.22-.45h.07c.08.02.51-.05.51-.49,0-.26-.18-.49-.49-.49s-.5.2-.5.51c0,.74.6,1.24,1.64,1.24,1.49,0,2.94-1.59,2.94-4.18,0-3.21-1.34-4.01-2.39-4.01-1.31,0-2.47,1.1-2.47,2.68s1.11,2.65,2.31,2.65c.88,0,1.34-.65,1.58-1.25v.39Z"/>
    <path class="cls-1" d="M146.19,46.24v-.27h-2.88c-1.45,0-1.47-.16-1.52-.38h-.26l-.37,2.39h.26c.04-.22.14-.96.3-1.09.1-.07.99-.07,1.16-.07h2.53l-1.27,1.82c-.32.47-1.53,2.43-1.53,4.67,0,.13,0,.61.49.61s.5-.47.5-.62v-.6c0-1.78.29-3.17.85-3.97l1.73-2.49Z"/>
    <path class="cls-1" d="M171.91,25.93c.25,0,.45,0,.45-.26s-.23-.26-.35-.26h-.82c-.12,0-.34,0-.34.26s.2.26.44.26l-.57,2.26c-.1.43-.27,1.1-.31,1.44h0c-.04-.33-.21-1-.31-1.41l-.57-2.29c.24,0,.44,0,.44-.26s-.22-.26-.34-.26h-.82c-.12,0-.35,0-.35.26s.21.26.45.26l1.04,4.11c.08.31.25.31.47.31s.39,0,.47-.31l1.04-4.11Z"/>
    <path class="cls-1" d="M178.05,34.3c-.66.5-.98.99-1.08,1.15-.54.82-.63,1.58-.63,1.59,0,.14.14.14.24.14.2,0,.22-.02.26-.24.27-1.17.98-2.17,2.33-2.72.14-.05.18-.07.18-.16l-.1-.13c-.53-.2-1.97-.8-2.43-2.81-.04-.14-.05-.18-.25-.18-.1,0-.24,0-.24.14,0,.02.11.78.61,1.58.24.36.59.78,1.1,1.16h-8.88c-.22,0-.43,0-.43.24s.22.24.43.24h8.88ZM168.65,34.3c.2,0,.42,0,.42-.24s-.22-.24-.42-.24h-6.46c-.2,0-.42,0-.42.24s.22.24.42.24h6.46Z"/>
    <path class="cls-1" d="M246.99,59.73h-.2V.4h-59.13v59.13h59.33s0,.2,0,.2h-.2.2v.2h-59.73V0h59.93v59.93h-.2v-.2ZM246.79,59.73V.2h.4v59.53h-.4ZM226.95,59.73V.2h.4v59.53h-.4ZM207.11,59.73V.2h.4v59.53h-.4ZM187.26,59.73V.2h.4v59.53h-.4ZM187.46,0h59.53v.4h-59.53V0ZM187.46,19.84h59.53v.4h-59.53v-.4ZM187.46,39.69h59.53v.4h-59.53v-.4ZM187.46,59.53h59.53v.4h-59.53v-.4Z"/>
    <path class="cls-1" d="M197.9,6.31c0-.27,0-.29-.24-.29-.29.32-.88.76-2.11.76v.35c.27,0,.87,0,1.53-.31v6.22c0,.43-.04.57-1.09.57h-.37v.35c.32-.02,1.48-.02,1.88-.02s1.54,0,1.86.02v-.35h-.37c-1.05,0-1.09-.14-1.09-.57v-6.74Z"/>
    <path class="cls-1" d="M217.14,11.12c-.75,0-1.08-.61-1.18-.84-.19-.45-.19-1.03-.19-1.57,0-.67,0-1.24.31-1.73.22-.32.54-.67,1.18-.67.68,0,1.03.6,1.15.87.24.59.24,1.6.24,1.78,0,1-.45,2.15-1.51,2.15ZM218.67,10.5c0,2.82-1.25,3.41-1.97,3.41-.29,0-.92-.04-1.22-.45h.07c.08.02.51-.05.51-.49,0-.26-.18-.49-.49-.49s-.5.2-.5.51c0,.74.6,1.24,1.64,1.24,1.49,0,2.94-1.59,2.94-4.18,0-3.21-1.34-4.01-2.39-4.01-1.31,0-2.47,1.1-2.47,2.68s1.11,2.65,2.31,2.65c.88,0,1.34-.65,1.58-1.25v.39Z"/>
    <path class="cls-1" d="M235.67,7.13c.51.17.93.18,1.06.18,1.35,0,2.21-.99,2.21-1.16l-.1-.11s-.05,0-.16.05c-.67.29-1.24.32-1.55.32-.79,0-1.35-.24-1.58-.33l-.12-.04c-.1,0-.1.07-.1.26v3.55c0,.22,0,.29.14.29.06,0,.07-.01.19-.16.33-.49.9-.78,1.49-.78.63,0,.94.59,1.04.79.2.47.22,1.05.22,1.51s0,1.14-.33,1.67c-.26.43-.73.73-1.25.73-.79,0-1.57-.54-1.78-1.41l.19.04c.2,0,.53-.12.53-.53,0-.33-.23-.53-.53-.53-.22,0-.53.11-.53.57,0,1.02.81,2.17,2.14,2.17s2.53-1.14,2.53-2.65c0-1.42-.96-2.6-2.21-2.6-.68,0-1.21.3-1.52.63v-2.47Z"/>
    <path class="cls-1" d="M197.4,33.74c-.75,0-1.11-.67-1.22-.92-.11-.31-.23-.9-.23-1.73,0-.94.43-2.13,1.51-2.13.66,0,1,.44,1.18.85.19.44.19,1.04.19,1.55,0,.61,0,1.15-.23,1.6-.3.57-.73.78-1.21.78ZM195.93,29.66c0-3.02,1.47-3.5,2.11-3.5.43,0,.86.13,1.09.49-.14,0-.6,0-.6.49,0,.26.18.49.49.49s.5-.18.5-.53c0-.62-.45-1.23-1.49-1.23-1.51,0-3.08,1.54-3.08,4.17,0,3.29,1.43,4.03,2.45,4.03,1.3,0,2.41-1.14,2.41-2.69s-1.11-2.65-2.31-2.65c-1.06,0-1.46.92-1.58,1.25v-.32Z"/>
    <path class="cls-1" d="M219.56,31.81h-.26c-.04.2-.13.86-.25,1.05-.08.11-.76.11-1.12.11h-2.21c.32-.27,1.05-1.04,1.36-1.33,1.82-1.67,2.49-2.29,2.49-3.48,0-1.37-1.09-2.29-2.47-2.29s-2.2,1.18-2.2,2.21c0,.61.53.61.56.61.25,0,.56-.18.56-.56,0-.33-.23-.56-.56-.56-.11,0-.13,0-.17.01.23-.81.87-1.36,1.65-1.36,1.02,0,1.64.85,1.64,1.95,0,1.02-.59,1.9-1.27,2.66l-2.41,2.7v.29h4.36l.31-2.01Z"/>
    <path class="cls-1" d="M239.82,26.4v-.27h-2.88c-1.45,0-1.47-.16-1.52-.38h-.26l-.37,2.39h.26c.04-.22.14-.96.3-1.09.1-.07.99-.07,1.16-.07h2.53l-1.27,1.82c-.32.47-1.53,2.43-1.53,4.67,0,.13,0,.61.49.61s.5-.47.5-.62v-.6c0-1.78.29-3.17.85-3.97l1.73-2.49Z"/>
    <path class="cls-1" d="M196.96,49.81l1.45.94c.31.2.86.57.86,1.3,0,.91-.92,1.53-1.88,1.53-1.02,0-1.89-.74-1.89-1.73,0-.93.68-1.68,1.46-2.04ZM196.39,48.27c-.16-.11-.63-.42-.63-1,0-.78.81-1.27,1.61-1.27.86,0,1.62.62,1.62,1.48,0,.73-.53,1.31-1.22,1.7l-1.39-.91ZM198.02,49.34c.6-.32,1.47-.87,1.47-1.88s-1-1.76-2.1-1.76c-1.18,0-2.11.87-2.11,1.96,0,.41.12.81.45,1.22.13.16.14.17.98.75-1.16.54-1.76,1.34-1.76,2.21,0,1.27,1.21,2.05,2.43,2.05,1.33,0,2.44-.98,2.44-2.23s-.86-1.76-1.79-2.33Z"/>
    <path class="cls-1" d="M217.83,46.81v4.5h-2.9l2.9-4.5ZM218.61,45.88c0-.23,0-.29-.17-.29-.1,0-.13,0-.23.14l-3.6,5.58v.35h3.14v1.09c0,.44-.02.56-.9.56h-.24v.35c.27-.02,1.22-.02,1.55-.02s1.29,0,1.57.02v-.35h-.24c-.86,0-.9-.12-.9-.56v-1.09h1.21v-.35h-1.21v-5.44Z"/>
    <path class="cls-1" d="M236.34,49.37c-.2.01-.25.02-.25.13,0,.12.06.12.27.12h.55c1.02,0,1.47.84,1.47,1.98,0,1.57-.81,1.98-1.4,1.98s-1.55-.27-1.9-1.06c.38.06.73-.16.73-.59,0-.35-.25-.59-.59-.59-.29,0-.6.17-.6.62,0,1.06,1.06,1.94,2.39,1.94,1.42,0,2.47-1.09,2.47-2.29,0-1.1-.88-1.96-2.03-2.16,1.04-.3,1.71-1.17,1.71-2.1s-.98-1.64-2.14-1.64-2.08.73-2.08,1.6c0,.48.37.57.55.57.25,0,.54-.18.54-.54,0-.38-.29-.55-.55-.55h-.13c.45-.8,1.58-.8,1.64-.8.39,0,1.17.18,1.17,1.35,0,.23-.04.9-.38,1.41-.36.53-.76.56-1.09.57l-.36.04Z"/>
  </g>
</svg>