<?xml version="1.0" encoding="UTF-8"?>
<svg id="Layer_1" data-name="Layer 1" xmlns="http://www.w3.org/2000/svg" xmlns:xlink="http://www.w3.org/1999/xlink" viewBox="0 0 397.14 113.67">
  <defs>
    <style>
      .cls-1, .cls-2, .cls-3, .cls-4 {
        stroke-width: 0px;
      }

      .cls-2 {
        fill: none;
      }

      .cls-5 {
        clip-path: url(#clippath);
      }

      .cls-3 {
        fill: #fff685;
      }

      .cls-4 {
        fill: #6167af;
      }
    </style>
    <clipPath id="clippath">
      <rect class="cls-2" x="-99.01" y="-504.99" width="595.28" height="841.89"/>
    </clipPath>
  </defs>
  <g class="cls-5">
    <rect class="cls-3" y=".28" width="56.69" height="56.69"/>
    <path class="cls-4" d="m28.35,28.63V.28h28.35v28.35h-28.35ZM0,56.98v-28.35h28.35v28.35H0Z"/>
    <polygon class="cls-3" points="70.87 56.98 70.87 .28 127.56 56.98 127.56 113.67 70.87 56.98"/>
    <path class="cls-4" d="m99.21,56.98v-28.35l28.35,28.35v28.35l-28.35-28.35Zm-28.35,0v-28.35l28.35,28.35v28.35l-28.35-28.35Z"/>
    <path class="cls-1" d="m125.66,56.58h1.9v.8h-1.9v-.8Zm-4.98,0h2.99v.8h-2.99v-.8Zm-4.98,0h2.99v.8h-2.99v-.8Zm-4.98,0h2.99v.8h-2.99v-.8Zm-4.98,0h2.99v.8h-2.99v-.8Zm-4.98,0h2.99v.8h-2.99v-.8Zm-4.98,0h2.99v.8h-2.99v-.8Zm-4.98,0h2.99v.8h-2.99v-.8Zm-4.98,0h2.99v.8h-2.99v-.8Zm-4.98,0h2.99v.8h-2.99v-.8Zm-4.98,0h2.99v.8h-2.99v-.8Zm-4.98,0h2.99v.8h-2.99v-.8Z"/>
    <rect class="cls-3" x="141.73" y=".28" width="56.69" height="56.69"/>
    <path class="cls-4" d="m141.73.28l28.35,28.35V.28l28.35,28.35V.28h-56.69Zm0,56.69v-28.35l28.35,28.35v-28.35l28.35,28.35h-56.69Z"/>
    <path class="cls-1" d="m198.37,56.36l.34.34-.56.56-.34-.34.56-.56Zm-3.52-3.52l2.11,2.11-.56.56-2.11-2.11.56-.56Zm-3.52-3.52l2.11,2.11-.56.56-2.11-2.11.56-.56Zm-3.52-3.52l2.11,2.11-.56.56-2.11-2.11.56-.56Zm-3.52-3.52l2.11,2.11-.56.56-2.11-2.11.56-.56Zm-3.52-3.52l2.11,2.11-.56.56-2.11-2.11.56-.56Zm-3.52-3.52l2.11,2.11-.56.56-2.11-2.11.56-.56Zm-3.52-3.52l2.11,2.11-.56.56-2.11-2.11.56-.56Zm-3.52-3.52l2.11,2.11-.56.56-2.11-2.11.56-.56Zm-3.52-3.52l2.11,2.11-.56.56-2.11-2.11.56-.56Zm-3.52-3.52l2.11,2.11-.56.56-2.11-2.11.56-.56Zm-3.52-3.52l2.11,2.11-.56.56-2.11-2.11.56-.56Zm-3.52-3.52l2.11,2.11-.56.56-2.11-2.11.56-.56Zm-3.52-3.52l2.11,2.11-.56.56-2.11-2.11.56-.56Zm-3.52-3.52l2.11,2.11-.56.56-2.11-2.11.56-.56Zm-3.52-3.52l2.11,2.11-.56.56-2.11-2.11.56-.56Zm-3.52-3.52l2.11,2.11-.56.56-2.11-2.11.56-.56Z"/>
    <polygon class="cls-3" points="269.29 56.98 212.6 .28 269.29 .28 325.99 56.98 269.29 56.98"/>
    <path class="cls-4" d="m212.6.28l56.69,28.35L240.95.28l56.69,28.35L269.29.28h-56.69Zm56.69,56.69l-28.35-28.35,56.69,28.35-28.35-28.35,56.69,28.35h-56.69Z"/>
    <path class="cls-1" d="m268.9,2.18V.28h.8v1.9h-.8Zm0,4.98v-2.99h.8v2.99h-.8Zm0,4.98v-2.99h.8v2.99h-.8Zm0,4.98v-2.99h.8v2.99h-.8Zm0,4.98v-2.99h.8v2.99h-.8Zm0,4.98v-2.99h.8v2.99h-.8Zm0,4.98v-2.99h.8v2.99h-.8Zm0,4.98v-2.99h.8v2.99h-.8Zm0,4.98v-2.99h.8v2.99h-.8Zm0,4.98v-2.99h.8v2.99h-.8Zm0,4.98v-2.99h.8v2.99h-.8Zm0,4.98v-2.99h.8v2.99h-.8Z"/>
    <rect class="cls-3" x="340.16" y=".28" width="56.69" height="56.69"/>
    <path class="cls-4" d="m340.16,56.98v-14.17l28.35,14.17-28.35-28.35,56.69,28.35-28.35-28.35,28.35,14.17v14.17h-56.69Zm0-42.52l28.35,14.17L340.16.28l56.69,28.35L368.51.28l28.35,14.17V.28h-56.69v14.17Z"/>
    <path class="cls-1" d="m396.8,56.36l.34.34-.56.56-.34-.34.56-.56Zm-3.52-3.52l2.11,2.11-.56.56-2.11-2.11.56-.56Zm-3.52-3.52l2.11,2.11-.56.56-2.11-2.11.56-.56Zm-3.52-3.52l2.11,2.11-.56.56-2.11-2.11.56-.56Zm-3.52-3.52l2.11,2.11-.56.56-2.11-2.11.56-.56Zm-3.52-3.52l2.11,2.11-.56.56-2.11-2.11.56-.56Zm-3.52-3.52l2.11,2.11-.56.56-2.11-2.11.56-.56Zm-3.52-3.52l2.11,2.11-.56.56-2.11-2.11.56-.56Zm-3.52-3.52l2.11,2.11-.56.56-2.11-2.11.56-.56Zm-3.52-3.52l2.11,2.11-.56.56-2.11-2.11.56-.56Zm-3.52-3.52l2.11,2.11-.56.56-2.11-2.11.56-.56Zm-3.52-3.52l2.11,2.11-.56.56-2.11-2.11.56-.56Zm-3.52-3.52l2.11,2.11-.56.56-2.11-2.11.56-.56Zm-3.52-3.52l2.11,2.11-.56.56-2.11-2.11.56-.56Zm-3.52-3.52l2.11,2.11-.56.56-2.11-2.11.56-.56Zm-3.52-3.52l2.11,2.11-.56.56-2.11-2.11.56-.56Zm-3.52-3.52l2.11,2.11-.56.56-2.11-2.11.56-.56Z"/>
  </g>
</svg>