<?xml version="1.0" encoding="UTF-8"?>
<svg id="Layer_1" data-name="Layer 1" xmlns="http://www.w3.org/2000/svg" xmlns:xlink="http://www.w3.org/1999/xlink" viewBox="0 0 348.73 57.09">
  <defs>
    <style>
      .cls-1 {
        fill: #000;
      }

      .cls-1, .cls-2 {
        stroke-width: 0px;
      }

      .cls-2 {
        fill: none;
      }

      .cls-3 {
        clip-path: url(#clippath-1);
      }

      .cls-4 {
        clip-path: url(#clippath);
      }
    </style>
    <clipPath id="clippath">
      <rect class="cls-2" x="-140.79" y="-395.8" width="595.28" height="841.89"/>
    </clipPath>
    <clipPath id="clippath-1">
      <rect class="cls-2" x="260.99" y=".2" width="56.69" height="56.69"/>
    </clipPath>
  </defs>
  <g class="cls-4">
    <path class="cls-1" d="M9.62,31.53c0-.39-.32-.68-.67-.68-.38,0-.68.3-.68.68,0,.36.31.67.67.67.39,0,.68-.32.68-.67ZM9.62,27.73c0-.39-.32-.68-.67-.68-.38,0-.68.3-.68.68,0,.36.31.67.67.67.39,0,.68-.32.68-.67ZM4.83,25.59h.26c.17,0,.48,0,.48-.35s-.3-.35-.48-.35h-1.3c-.17,0-.49,0-.49.35s.32.35.49.35h.26v2.46H1.52v-2.46h.26c.17,0,.49,0,.49-.35s-.32-.35-.49-.35H.48c-.18,0-.48,0-.48.35s.31.35.48.35h.26v5.91h-.26c-.17,0-.48,0-.48.35s.3.35.48.35h1.3c.17,0,.49,0,.49-.35s-.32-.35-.49-.35h-.26v-2.76h2.53v2.76h-.26c-.17,0-.49,0-.49.35s.32.35.49.35h1.3c.18,0,.48,0,.48-.35s-.31-.35-.48-.35h-.26v-5.91Z"/>
    <polygon class="cls-1" points="34.21 56.89 34.01 56.89 34.01 0 91.1 0 91.1 57.09 34.01 57.09 34.01 56.89 34.21 56.89 34.21 56.69 90.71 56.69 90.71 .4 34.41 .4 34.41 56.89 34.21 56.89 34.21 56.69 34.21 56.89"/>
    <path class="cls-1" d="M68.67,36.96c-6.31,5.66-11.97,6.31-14.48,6.31-5.09,0-6.52-4.52-6.52-7.89,0-3.08,1.58-10.39,3.8-14.34,2.94-5.02,6.95-7.24,10.18-7.24,6.95,0,6.95,9.1,6.95,15.13,0,1.79-.07,3.66-.07,5.45,0,1.43.07,1.79.14,2.58ZM73.18,25.85c0-6.95-3.94-13.48-11.54-13.48-9.39,0-18.78,10.25-18.78,20.43,0,6.24,3.87,11.9,11.18,11.9,4.44,0,9.75-1.72,14.84-6.02,1,4.01,3.23,6.02,6.31,6.02,3.87,0,5.81-4.01,5.81-4.95,0-.65-.5-.65-.72-.65-.57,0-.65.22-.86.79-.65,1.79-2.29,3.37-4.01,3.37-2.22,0-2.22-4.59-2.22-8.96,7.31-8.75,9.03-17.78,9.03-17.85,0-.65-.57-.65-.79-.65-.65,0-.72.21-1,1.51-.93,3.15-2.8,8.75-7.24,14.62v-6.09Z"/>
    <polyline class="cls-1" points="105.08 27.75 126.61 27.75 126.61 29.34 105.08 29.34"/>
    <path class="cls-1" d="M133.42,28.55c-2.02-.38-5.3-1.51-7.57-2.84v5.68c2.27-1.33,5.55-2.46,7.57-2.84"/>
    <polyline class="cls-1" points="218.47 27.75 240 27.75 240 29.34 218.47 29.34"/>
    <path class="cls-1" d="M246.81,28.55c-2.02-.38-5.3-1.51-7.57-2.84v5.68c2.27-1.33,5.55-2.46,7.57-2.84"/>
    <polygon class="cls-1" points="175.95 56.89 175.8 57.03 118.77 0 176.03 0 233.12 57.09 175.86 57.09 175.8 57.03 175.95 56.89 175.95 56.69 232.16 56.69 175.86 .4 119.73 .4 176.09 56.75 175.95 56.89 175.95 56.69 175.95 56.89"/>
    <path class="cls-1" d="M190.47,36.96c-.65,5.66-5.66,6.31-8.17,6.31-5.09,0-11.04-4.52-14.41-7.89-3.08-3.08-8.82-10.39-10.54-14.34-2.08-5.02-.29-7.24,2.94-7.24,6.95,0,16.06,9.1,22.08,15.13,1.79,1.79,3.58,3.66,5.38,5.45,1.43,1.43,1.86,1.79,2.72,2.58ZM183.87,25.85c-6.95-6.95-17.42-13.48-25.02-13.48-9.39,0-8.53,10.25,1.65,20.43,6.24,6.24,15.77,11.9,23.08,11.9,4.44,0,8.03-1.72,8.82-6.02,5.02,4.01,9.25,6.02,12.33,6.02,3.87,0,1.79-4.01.86-4.95-.65-.65-1.15-.65-1.36-.65-.57,0-.43.22-.07.79,1.15,1.79,1.08,3.37-.65,3.37-2.22,0-6.81-4.59-11.18-8.96-1.43-8.75-8.75-17.78-8.82-17.85-.65-.65-1.22-.65-1.43-.65-.65,0-.5.21.5,1.51,2.22,3.15,5.95,8.75,7.38,14.62l-6.09-6.09Z"/>
    <path class="cls-1" d="M175.75,2.1V.2h.4v1.9h-.4ZM175.75,7.08v-2.99h.4v2.99h-.4ZM175.75,12.06v-2.99h.4v2.99h-.4ZM175.75,17.04v-2.99h.4v2.99h-.4ZM175.75,22.02v-2.99h.4v2.99h-.4ZM175.75,27v-2.99h.4v2.99h-.4ZM175.75,31.99v-2.99h.4v2.99h-.4ZM175.75,36.97v-2.99h.4v2.99h-.4ZM175.75,41.95v-2.99h.4v2.99h-.4ZM175.75,46.93v-2.99h.4v2.99h-.4ZM175.75,51.91v-2.99h.4v2.99h-.4ZM175.75,56.89v-2.99h.4v2.99h-.4Z"/>
    <path class="cls-1" d="M317.48,56.42l.34.34-.28.28-.34-.34.28-.28ZM313.96,52.89l2.11,2.11-.28.28-2.11-2.11.28-.28ZM310.44,49.37l2.11,2.11-.28.28-2.11-2.11.28-.28ZM306.92,45.85l2.11,2.11-.28.28-2.11-2.11.28-.28ZM303.39,42.33l2.11,2.11-.28.28-2.11-2.11.28-.28ZM299.87,38.8l2.11,2.11-.28.28-2.11-2.11.28-.28ZM296.35,35.28l2.11,2.11-.28.28-2.11-2.11.28-.28ZM292.83,31.76l2.11,2.11-.28.28-2.11-2.11.28-.28ZM289.31,28.24l2.11,2.11-.28.28-2.11-2.11.28-.28ZM285.78,24.71l2.11,2.11-.28.28-2.11-2.11.28-.28ZM282.26,21.19l2.11,2.11-.28.28-2.11-2.11.28-.28ZM278.74,17.67l2.11,2.11-.28.28-2.11-2.11.28-.28ZM275.22,14.15l2.11,2.11-.28.28-2.11-2.11.28-.28ZM271.69,10.63l2.11,2.11-.28.28-2.11-2.11.28-.28ZM268.17,7.1l2.11,2.11-.28.28-2.11-2.11.28-.28ZM264.65,3.58l2.11,2.11-.28.28-2.11-2.11.28-.28ZM261.13.06l2.11,2.11-.28.28-2.11-2.11.28-.28Z"/>
    <polygon class="cls-1" points="260.99 56.89 260.79 56.89 260.79 0 317.88 0 317.88 57.09 260.79 57.09 260.79 56.89 260.99 56.89 260.99 56.69 317.48 56.69 317.48 .4 261.18 .4 261.18 56.89 260.99 56.89 260.99 56.69 260.99 56.89"/>
    <g class="cls-3">
      <path class="cls-1" d="M275.51,36.96c-.65,5.66-5.66,6.31-8.17,6.31-5.09,0-11.04-4.52-14.41-7.89-3.08-3.08-8.82-10.39-10.54-14.34-2.08-5.02-.29-7.24,2.94-7.24,6.95,0,16.06,9.1,22.08,15.13,1.79,1.79,3.58,3.66,5.38,5.45,1.43,1.43,1.86,1.79,2.72,2.58ZM268.91,25.85c-6.95-6.95-17.42-13.48-25.02-13.48-9.39,0-8.53,10.25,1.65,20.43,6.24,6.24,15.77,11.9,23.08,11.9,4.44,0,8.03-1.72,8.82-6.02,5.02,4.01,9.25,6.02,12.33,6.02,3.87,0,1.79-4.01.86-4.95-.65-.65-1.15-.65-1.36-.65-.57,0-.43.22-.07.79,1.15,1.79,1.08,3.37-.65,3.37-2.22,0-6.81-4.59-11.18-8.96-1.43-8.75-8.75-17.78-8.82-17.85-.65-.65-1.22-.65-1.43-.65-.65,0-.5.21.5,1.51,2.22,3.15,5.95,8.75,7.38,14.62l-6.09-6.09Z"/>
      <path class="cls-1" d="M332.2,36.96c-.65,5.66-5.66,6.31-8.17,6.31-5.09,0-11.04-4.52-14.41-7.89-3.08-3.08-8.82-10.39-10.54-14.34-2.08-5.02-.29-7.24,2.94-7.24,6.95,0,16.06,9.1,22.08,15.13,1.79,1.79,3.58,3.66,5.38,5.45,1.43,1.43,1.86,1.79,2.72,2.58ZM325.61,25.85c-6.95-6.95-17.42-13.48-25.02-13.48-9.39,0-8.53,10.25,1.65,20.43,6.24,6.24,15.77,11.9,23.08,11.9,4.44,0,8.03-1.72,8.82-6.02,5.02,4.01,9.25,6.02,12.33,6.02,3.87,0,1.79-4.01.86-4.95-.65-.65-1.15-.65-1.36-.65-.57,0-.43.22-.07.79,1.15,1.79,1.08,3.37-.65,3.37-2.22,0-6.81-4.59-11.18-8.96-1.43-8.75-8.75-17.78-8.82-17.85-.65-.65-1.22-.65-1.43-.65-.65,0-.5.21.5,1.51,2.22,3.15,5.95,8.75,7.38,14.62l-6.09-6.09Z"/>
    </g>
  </g>
</svg>