<?xml version="1.0" encoding="UTF-8"?>
<svg id="Layer_1" data-name="Layer 1" xmlns="http://www.w3.org/2000/svg" xmlns:xlink="http://www.w3.org/1999/xlink" viewBox="0 0 289.6 114.35">
  <defs>
    <style>
      .cls-1 {
        fill: #000;
      }

      .cls-1, .cls-2 {
        stroke-width: 0px;
      }

      .cls-2 {
        fill: none;
      }

      .cls-3 {
        clip-path: url(#clippath-1);
      }

      .cls-4 {
        clip-path: url(#clippath);
      }
    </style>
    <clipPath id="clippath">
      <rect class="cls-2" x="-154.9" y="-201.82" width="595.28" height="841.89"/>
    </clipPath>
    <clipPath id="clippath-1">
      <rect class="cls-2" x="232.71" y=".48" width="56.69" height="56.69"/>
    </clipPath>
  </defs>
  <g class="cls-4">
    <path class="cls-1" d="M9.69,31.81c0-.39-.32-.68-.67-.68-.38,0-.68.3-.68.68,0,.36.31.67.67.67.39,0,.68-.32.68-.67ZM9.69,28.01c0-.39-.32-.68-.67-.68-.38,0-.68.3-.68.68,0,.36.31.67.67.67.39,0,.68-.32.68-.67ZM5.07,25.87c.37,0,.65,0,.65-.35s-.31-.35-.48-.35h-1.12c-.17,0-.49,0-.49.35s.29.35.65.35l-.97,3.86c-.16.61-.36,1.45-.43,1.94h-.01c-.07-.47-.2-.97-.32-1.46l-1.09-4.34c.36,0,.65,0,.65-.35s-.32-.35-.49-.35H.48c-.17,0-.48,0-.48.35s.27.35.63.35h.01l1.59,6.28c.11.43.36.43.62.43s.5,0,.61-.41l1.6-6.31Z"/>
    <polygon class="cls-1" points="34.28 57.17 34.08 57.17 34.08 .28 91.18 .28 91.18 57.37 34.08 57.37 34.08 57.17 34.28 57.17 34.28 56.98 90.78 56.98 90.78 .68 34.48 .68 34.48 57.17 34.28 57.17 34.28 56.98 34.28 57.17"/>
    <path class="cls-1" d="M68.74,37.25c-6.31,5.66-11.97,6.31-14.48,6.31-5.09,0-6.52-4.52-6.52-7.89,0-3.08,1.58-10.39,3.8-14.34,2.94-5.02,6.95-7.24,10.18-7.24,6.95,0,6.95,9.1,6.95,15.13,0,1.79-.07,3.66-.07,5.45,0,1.43.07,1.79.14,2.58ZM73.25,26.13c0-6.95-3.94-13.48-11.54-13.48-9.39,0-18.78,10.25-18.78,20.43,0,6.24,3.87,11.9,11.18,11.9,4.44,0,9.75-1.72,14.84-6.02,1,4.01,3.23,6.02,6.31,6.02,3.87,0,5.81-4.01,5.81-4.95,0-.65-.5-.65-.72-.65-.57,0-.65.22-.86.79-.65,1.79-2.29,3.37-4.01,3.37-2.22,0-2.22-4.59-2.22-8.96,7.31-8.75,9.03-17.78,9.03-17.85,0-.65-.57-.65-.79-.65-.65,0-.72.22-1,1.51-.93,3.15-2.8,8.75-7.24,14.62v-6.09Z"/>
    <polyline class="cls-1" points="105.15 28.03 126.68 28.03 126.68 29.62 105.15 29.62"/>
    <path class="cls-1" d="M133.5,28.83c-2.02-.38-5.3-1.51-7.57-2.84v5.68c2.27-1.33,5.55-2.46,7.57-2.84"/>
    <polyline class="cls-1" points="190.19 28.03 211.72 28.03 211.72 29.62 190.19 29.62"/>
    <path class="cls-1" d="M218.54,28.83c-2.02-.38-5.3-1.51-7.57-2.84v5.68c2.27-1.33,5.55-2.46,7.57-2.84"/>
    <polygon class="cls-1" points="147.67 57.17 147.47 57.17 147.47 0 204.56 57.09 204.56 114.35 147.47 57.26 147.47 57.17 147.67 57.17 147.81 57.03 204.16 113.39 204.16 57.26 147.87 .96 147.87 57.17 147.67 57.17 147.81 57.03 147.67 57.17"/>
    <path class="cls-1" d="M182.12,71.7c-6.31-.65-11.97-5.66-14.48-8.17-5.09-5.09-6.52-11.04-6.52-14.41,0-3.08,1.58-8.82,3.8-10.54,2.94-2.08,6.95-.29,10.18,2.94,6.95,6.95,6.95,16.06,6.95,22.08,0,1.79-.07,3.58-.07,5.38,0,1.43.07,1.86.14,2.72ZM186.64,65.11c0-6.95-3.94-17.42-11.54-25.02-9.39-9.39-18.78-8.53-18.78,1.65,0,6.24,3.87,15.77,11.18,23.08,4.44,4.44,9.75,8.03,14.84,8.82,1,5.02,3.23,9.25,6.31,12.33,3.87,3.87,5.81,1.79,5.81.86,0-.65-.5-1.15-.72-1.36-.57-.57-.65-.43-.86-.07-.65,1.15-2.29,1.08-4.01-.64-2.22-2.22-2.22-6.81-2.22-11.18,7.31-1.43,9.03-8.75,9.03-8.82,0-.65-.57-1.22-.79-1.43-.65-.65-.72-.5-1,.5-.93,2.22-2.8,5.95-7.24,7.38v-6.09Z"/>
    <path class="cls-1" d="M202.47,56.98h1.9v.4h-1.9v-.4ZM197.48,56.98h2.99v.4h-2.99v-.4ZM192.5,56.98h2.99v.4h-2.99v-.4ZM187.52,56.98h2.99v.4h-2.99v-.4ZM182.54,56.98h2.99v.4h-2.99v-.4ZM177.56,56.98h2.99v.4h-2.99v-.4ZM172.58,56.98h2.99v.4h-2.99v-.4ZM167.6,56.98h2.99v.4h-2.99v-.4ZM162.61,56.98h2.99v.4h-2.99v-.4ZM157.63,56.98h2.99v.4h-2.99v-.4ZM152.65,56.98h2.99v.4h-2.99v-.4ZM147.67,56.98h2.99v.4h-2.99v-.4Z"/>
    <path class="cls-1" d="M289.21,56.7l.34.34-.28.28-.34-.34.28-.28ZM285.69,53.18l2.11,2.11-.28.28-2.11-2.11.28-.28ZM282.16,49.65l2.11,2.11-.28.28-2.11-2.11.28-.28ZM278.64,46.13l2.11,2.11-.28.28-2.11-2.11.28-.28ZM275.12,42.61l2.11,2.11-.28.28-2.11-2.11.28-.28ZM271.6,39.09l2.11,2.11-.28.28-2.11-2.11.28-.28ZM268.08,35.56l2.11,2.11-.28.28-2.11-2.11.28-.28ZM264.55,32.04l2.11,2.11-.28.28-2.11-2.11.28-.28ZM261.03,28.52l2.11,2.11-.28.28-2.11-2.11.28-.28ZM257.51,25l2.11,2.11-.28.28-2.11-2.11.28-.28ZM253.99,21.47l2.11,2.11-.28.28-2.11-2.11.28-.28ZM250.46,17.95l2.11,2.11-.28.28-2.11-2.11.28-.28ZM246.94,14.43l2.11,2.11-.28.28-2.11-2.11.28-.28ZM243.42,10.91l2.11,2.11-.28.28-2.11-2.11.28-.28ZM239.9,7.38l2.11,2.11-.28.28-2.11-2.11.28-.28ZM236.37,3.86l2.11,2.11-.28.28-2.11-2.11.28-.28ZM232.85.34l2.11,2.11-.28.28-2.11-2.11.28-.28Z"/>
    <polygon class="cls-1" points="232.71 57.17 232.51 57.17 232.51 .28 289.6 .28 289.6 57.37 232.51 57.37 232.51 57.17 232.71 57.17 232.71 56.98 289.2 56.98 289.2 .68 232.91 .68 232.91 57.17 232.71 57.17 232.71 56.98 232.71 57.17"/>
    <g class="cls-3">
      <path class="cls-1" d="M267.16,71.7c-6.31-.65-11.97-5.66-14.48-8.17-5.09-5.09-6.52-11.04-6.52-14.41,0-3.08,1.58-8.82,3.8-10.54,2.94-2.08,6.95-.29,10.18,2.94,6.95,6.95,6.95,16.06,6.95,22.08,0,1.79-.07,3.58-.07,5.38,0,1.43.07,1.86.14,2.72ZM271.68,65.11c0-6.95-3.94-17.42-11.54-25.02-9.39-9.39-18.78-8.53-18.78,1.65,0,6.24,3.87,15.77,11.18,23.08,4.44,4.44,9.75,8.03,14.84,8.82,1,5.02,3.23,9.25,6.31,12.33,3.87,3.87,5.81,1.79,5.81.86,0-.65-.5-1.15-.72-1.36-.57-.57-.65-.43-.86-.07-.65,1.15-2.29,1.08-4.01-.64-2.22-2.22-2.22-6.81-2.22-11.18,7.31-1.43,9.03-8.75,9.03-8.82,0-.65-.57-1.22-.79-1.43-.65-.65-.72-.5-1,.5-.93,2.22-2.8,5.95-7.24,7.38v-6.09Z"/>
      <path class="cls-1" d="M267.16,15.01c-6.31-.65-11.97-5.66-14.48-8.17-5.09-5.09-6.52-11.04-6.52-14.41,0-3.08,1.58-8.82,3.8-10.54,2.94-2.08,6.95-.29,10.18,2.94,6.95,6.95,6.95,16.06,6.95,22.08,0,1.79-.07,3.58-.07,5.38,0,1.43.07,1.86.14,2.72ZM271.68,8.41c0-6.95-3.94-17.42-11.54-25.02-9.39-9.39-18.78-8.53-18.78,1.65,0,6.24,3.87,15.77,11.18,23.08,4.44,4.44,9.75,8.03,14.84,8.82,1,5.02,3.23,9.25,6.31,12.33,3.87,3.87,5.81,1.79,5.81.86,0-.65-.5-1.15-.72-1.36-.57-.57-.65-.43-.86-.07-.65,1.15-2.29,1.08-4.01-.65-2.22-2.22-2.22-6.81-2.22-11.18,7.31-1.43,9.03-8.75,9.03-8.82,0-.65-.57-1.22-.79-1.43-.65-.65-.72-.5-1,.5-.93,2.22-2.8,5.95-7.24,7.38v-6.09Z"/>
    </g>
  </g>
</svg>